Coordinates
version=1
nRows=17
nColumns=36
inDegrees=yes

Units are S.I. units (second, meters, Newtons, ...)
Angles are in degrees.

endheader
time	pelvis_tilt	pelvis_list	pelvis_rotation	pelvis_tx	pelvis_ty	pelvis_tz	hip_flexion_r	hip_adduction_r	hip_rotation_r	knee_angle_r	ankle_angle_r	subtalar_angle_r	hip_flexion_l	hip_adduction_l	hip_rotation_l	knee_angle_l	ankle_angle_l	subtalar_angle_l	lumbar_extension	lumbar_bending	lumbar_rotation	arm_flex_r	arm_add_r	arm_rot_r	elbow_flex_r	pro_sup_r	wrist_flex_r	wrist_dev_r	arm_flex_l	arm_add_l	arm_rot_l	elbow_flex_l	pro_sup_l	wrist_flex_l	wrist_dev_l
      1.60000000	      0.42476399	     -2.22253022	     -0.70338921	     -0.21259816	      0.89574551	     -0.24841032	    -18.09684637	      5.93374672	     -5.41540583	    -14.47708018	     12.90653929	      9.67091782	     29.90612512	     -0.12844410	     -0.27381672	    -13.52081787	      6.15332827	      5.05412256	     -7.81114958	      4.44743971	      5.61237419	      8.44981871	    -23.89051742	     17.93114274	     38.00811621	     86.51662706	      0.00000000	      0.00000000	     -5.29616921	    -11.92277211	     31.54226705	      6.16361754	     86.51662706	      0.00000000	      0.00000000
      1.61000000	      0.33038013	     -1.97476450	     -0.89894966	     -0.19708427	      0.89434685	     -0.24890539	    -18.37519618	      5.39836682	     -5.53699740	    -15.58193299	     12.46412628	     10.25941822	     30.01143786	      0.31117185	     -0.22290723	    -14.71846657	      5.64000104	      5.24357513	     -7.57393574	      4.11378100	      5.80716635	      8.03612739	    -23.92948413	     17.36844731	     38.49186025	     86.51662706	      0.00000000	      0.00000000	     -5.60264982	    -11.88523396	     31.79922333	      5.81063261	     86.51662706	      0.00000000	      0.00000000
      1.62000000	      0.20391319	     -1.66761849	     -1.05834763	     -0.18121137	      0.89285266	     -0.24943551	    -18.57077892	      4.80354561	     -5.67983823	    -16.79693149	     11.87095655	     10.78981011	     30.03069699	      0.86216537	     -0.03164422	    -16.04015912	      4.80868136	      4.90473099	     -7.25828673	      3.69977825	      5.94336178	      7.52400442	    -23.91377159	     16.74996449	     38.92622477	     86.51662706	      0.00000000	      0.00000000	     -5.92102447	    -11.87685953	     32.06497161	      5.48463604	     86.51662706	      0.00000000	      0.00000000
      1.63000000	      0.04421950	     -1.30762414	     -1.16491310	     -0.16507848	      0.89117256	     -0.25001534	    -18.66503272	      4.16324972	     -5.83676174	    -18.13451964	     11.06303194	     11.23582962	     30.01869068	      1.51086552	      0.28157102	    -17.39101933	      3.66573398	      4.09773931	     -6.86585214	      3.21032704	      5.99819627	      6.93529647	    -23.83750007	     16.08216182	     39.29587748	     86.51662706	      0.00000000	      0.00000000	     -6.23845607	    -11.89686248	     32.33343175	      5.18690744	     86.51662706	      0.00000000	      0.00000000
      1.64000000	     -0.13667055	     -0.89035891	     -1.20717367	     -0.14879398	      0.88944439	     -0.25067429	    -18.63230348	      3.48108216	     -5.99975745	    -19.61927627	      9.96387696	     11.57367643	     30.03760977	      2.23766791	      0.69570677	    -18.73172367	      2.26879987	      2.91695092	     -6.41438189	      2.64600136	      5.95796346	      6.29358848	    -23.69633288	     15.37242428	     39.58750268	     86.51662706	      0.00000000	      0.00000000	     -6.53586298	    -11.94322976	     32.59700947	      4.92091356	     86.51662706	      0.00000000	      0.00000000
      1.65000000	     -0.32736210	     -0.40479122	     -1.18151514	     -0.13251413	      0.88800361	     -0.25142912	    -18.44034679	      2.75249475	     -6.15918232	    -21.28287629	      8.49700617	     11.78064067	     30.12320078	      3.02376088	      1.18951465	    -20.07857392	      0.72436805	      1.47980587	     -5.93278567	      2.00541786	      5.82322865	      5.62037032	    -23.48895489	     14.62981768	     39.79142198	     86.51662706	      0.00000000	      0.00000000	     -6.79220580	    -12.01333093	     32.84673219	      4.69230553	     86.51662706	      0.00000000	      0.00000000
      1.66000000	     -0.52473839	      0.15591330	     -1.09390691	     -0.11642290	      0.88713821	     -0.25226221	    -18.05665189	      1.97084761	     -6.30291242	    -23.15901888	      6.60356430	     11.83174206	     30.26831642	      3.85678578	      1.73984634	    -21.47452460	     -0.82847241	     -0.08407594	     -5.45361317	      1.28897243	      5.61041859	      4.93242157	    -23.21827986	     13.86607306	     39.90250086	     86.51662706	      0.00000000	      0.00000000	     -6.98866732	    -12.10494310	     33.07262387	      4.50850394	     86.51662706	      0.00000000	      0.00000000
      1.67000000	     -0.72591403	      0.78535316	     -0.95973780	     -0.10060791	      0.88687189	     -0.25312859	    -17.45778134	      1.13389235	     -6.41505687	    -25.27860936	      4.26165526	     11.69537985	     30.43607406	      4.73106027	      2.31854130	    -22.94380812	     -2.24167386	     -1.64389462	     -5.00611777	      0.50227708	      5.34884484	      4.24126755	    -22.89188598	     13.09653452	     39.92009460	     86.51662706	      0.00000000	      0.00000000	     -7.11160821	    -12.21712916	     33.26432202	      4.37802926	     86.51662706	      0.00000000	      0.00000000
      1.68000000	     -0.91958462	      1.46350878	     -0.80125603	     -0.08501624	      0.88698681	     -0.25397021	    -16.63471863	      0.24847477	     -6.47456459	    -27.66432106	      1.50265574	     11.32976248	     30.58235225	      5.64266885	      2.89080642	    -24.46170410	     -3.38122440	     -3.07910079	     -4.61212028	     -0.34197503	      5.07386745	      3.55482513	    -22.52146723	     12.34080619	     39.84699429	     86.51662706	      0.00000000	      0.00000000	     -7.15377118	    -12.35031624	     33.41185207	      4.30974807	     86.51662706	      0.00000000	      0.00000000
      1.69000000	     -1.09123816	      2.16484700	     -0.64349830	     -0.06957638	      0.88723501	     -0.25472329	    -15.59059033	     -0.66743006	     -6.45524716	    -30.32487179	     -1.58034281	     10.68228463	     30.66548991	      6.58268913	      3.41639271	    -25.95954826	     -4.14496412	     -4.29027204	     -4.28505597	     -1.22446403	      4.81826823	      2.88051618	    -22.12145305	     11.62286650	     39.68760404	     86.51662706	      0.00000000	      0.00000000	     -7.11373413	    -12.50539042	     33.50643661	      4.31213271	     86.51662706	      0.00000000	      0.00000000
      1.70000000	     -1.23387897	      2.86809128	     -0.51031849	     -0.05431571	      0.88751319	     -0.25533315	    -14.33422678	     -1.58616746	     -6.32890170	    -33.25103992	     -4.83563556	      9.69381834	     30.64671131	      7.53170920	      3.85298312	    -27.35391200	     -4.47391366	     -5.20734248	     -4.03108076	     -2.12146358	      4.60464114	      2.22854246	    -21.70725672	     10.97048696	     39.44582195	     86.51662706	      0.00000000	      0.00000000	     -6.99440062	    -12.68220203	     33.54120987	      4.39254534	     86.51662706	      0.00000000	      0.00000000
      1.71000000	     -1.34997273	      3.55989458	     -0.42153439	     -0.03932587	      0.88784680	     -0.25578827	    -12.87578545	     -2.47567570	     -6.07175711	    -36.41497430	     -8.06859863	      8.30896591	     30.49449407	      8.45764824	      4.16036031	    -28.57510170	     -4.35696324	     -5.79319487	     -3.85062524	     -3.00730940	      4.44129193	      1.61397931	    -21.29369081	     10.41388510	     39.12321189	     86.51662706	      0.00000000	      0.00000000	     -6.80164548	    -12.87816505	     33.51172698	      4.55653592	     86.51662706	      0.00000000	      0.00000000
      1.72000000	     -1.44505526	      4.22990543	     -0.39120062	     -0.02466590	      0.88826998	     -0.25612832	    -11.22688290	     -3.30662106	     -5.67224330	    -39.77181636	    -11.06767399	      6.49165416	     30.19306947	      9.31833813	      4.30412172	    -29.58128868	     -3.82874717	     -6.04207328	     -3.73936493	     -3.85597140	      4.32278372	      1.05684095	    -20.89384617	      9.98362553	     38.71800518	     86.51662706	      0.00000000	      0.00000000	     -6.54373824	    -13.08741507	     33.41618950	      4.80719975	     86.51662706	      0.00000000	      0.00000000
      1.73000000	     -1.52284093	      4.86259446	     -0.42712589	     -0.01034280	      0.88877944	     -0.25639407	     -9.40278198	     -4.05678132	     -5.13674055	    -43.26138216	    -13.63569421	      4.24319013	     29.74576830	     10.06883237	      4.25876205	    -30.35942768	     -2.96082323	     -5.97415465	     -3.68870528	     -4.64175428	      4.23430124	      0.57999240	    -20.51842700	      9.70787836	     38.22527418	     86.51662706	      0.00000000	      0.00000000	     -6.23130767	    -13.30083722	     33.25540320	      5.14471463	     86.51662706	      0.00000000	      0.00000000
      1.74000000	     -1.58582160	      5.43456188	     -0.53205607	      0.00365533	      0.88937760	     -0.25657805	     -7.42332969	     -4.70926636	     -4.49035033	    -46.80924581	    -15.62041420	      1.61770214	     29.16962964	     10.67065677	      4.01095268	    -30.91874429	     -1.84779336	     -5.62856614	     -3.68661846	     -5.33992553	      4.15732293	      0.20541463	    -20.17541907	      9.60926831	     37.63831720	     86.51662706	      0.00000000	      0.00000000	     -5.87691655	    -13.50740632	     33.03261440	      5.56620379	     86.51662706	      0.00000000	      0.00000000
      1.75000000	     -1.63746749	      5.92027515	     -0.70562265	      0.01734268	      0.89009514	     -0.25664064	     -5.31190117	     -5.24673244	     -3.77150150	    -50.32881016	    -16.93779481	     -1.27103874	     28.48636019	     11.09959381	      3.56338792	    -31.28111202	     -0.59147724	     -5.05671497	     -3.71939006	     -5.92805180	      4.07414719	     -0.05027905	    -19.86995427	      9.70168544	     36.95097065	     86.51662706	      0.00000000	      0.00000000	     -5.49362378	    -13.69681933	     32.75335317	      6.06602046	     86.51662706	      0.00000000	      0.00000000
      1.76000000	     -1.68254861	      6.30044081	     -0.94440815	      0.03072890	      0.89096292	     -0.25656063	     -3.09408718	     -5.64857540	     -3.02168656	    -53.72654213	    -17.58191021	     -4.25598233	     27.71542542	     11.34971938	      2.93834195	    -31.47171216	      0.71346287	     -4.31677228	     -3.77392928	     -6.38827972	      3.97046547	     -0.18003086	    -19.60424290	      9.98754515	     36.16031496	     86.51662706	      0.00000000	      0.00000000	     -5.09310056	    -13.86237793	     32.42524521	      6.63642897	     86.51662706	      0.00000000	      0.00000000
